# File created by Blade
# Date/Time:  Tue Apr 07 20:45:22 2015
# Frame Rate: 120.000 fps
#------------------------------------------------------
:FULLY-SPECIFIED
:DEGREES
469
root 1.582280 34.089261 -5.121508 14.592268 -20.004380 -48.086768
Spine 5.733360 25.949140 31.851251
Head 2.804212 -3.557992 21.031382
LeftShoulder -22.194209 26.488229 32.633677
LeftArm 77.633467 -80.896563 -68.890624
LeftForeArm 9.910845 -0.000000 16.239544
LeftHand 9.095827 -0.000000 15.497987
LeftHandThumb1 -26.253704 0.000000 33.147579
RightShoulder -11.773005 33.449479 -34.649746
RightArm 67.979574 76.597876 105.849430
RightForeArm 39.282918 -0.000000 61.804731
RightHand 0.046016 -0.000000 28.639450
RightHandThumb1 -24.326973 -0.000000 -32.862282
LeftUpLeg -4.369926 -5.905596 39.638292
LeftLeg 22.534362 -0.000000 -0.000000
LeftFoot -15.698813 38.395085 -8.200053
LeftToeBase -11.007808 -0.000000 0.000000
RightUpLeg -134.850219 -54.251286 17.200455
RightLeg -9.638971 -0.000000 0.000000
RightFoot 39.664508 -20.752259 10.667671
RightToeBase 11.041064 -0.000000 -0.000000
470
root 1.602604 34.060851 -5.186645 14.695603 -19.976505 -48.209815
Spine 6.012829 25.883125 32.052617
Head 2.241590 -3.411167 21.132151
LeftShoulder -22.227710 26.085592 32.895213
LeftArm 78.932546 -80.960935 -69.487473
LeftForeArm 9.991933 -0.000000 16.563864
LeftHand 9.079125 0.000000 15.505160
LeftHandThumb1 -26.253704 0.000000 33.147579
RightShoulder -11.806287 33.634685 -34.691710
RightArm 67.223997 76.628351 105.029422
RightForeArm 39.588276 -0.000000 61.648519
RightHand -0.057402 -0.000000 28.754426
RightHandThumb1 -24.326973 -0.000000 -32.862282
LeftUpLeg -4.881354 -5.284437 39.904751
LeftLeg 23.298539 -0.000000 -0.000000
LeftFoot -16.539089 37.429106 -8.993127
LeftToeBase -11.077796 -0.000000 0.000000
RightUpLeg -134.599640 -54.135778 17.264924
RightLeg -9.868013 -0.000000 0.000000
RightFoot 39.652979 -21.050643 10.919977
RightToeBase 11.164157 -0.000000 -0.000000
471
root 1.624910 34.038904 -5.252414 14.783828 -19.928249 -48.278850
Spine 6.256719 25.806112 32.180387
Head 1.751512 -3.279554 21.278306
LeftShoulder -22.190838 25.779707 33.166971
LeftArm 80.772639 -81.108281 -70.724611
LeftForeArm 10.119653 0.000000 16.982775
LeftHand 8.974624 -0.000000 15.685916
LeftHandThumb1 -26.253704 0.000000 33.147579
RightShoulder -11.779930 33.580173 -34.673173
RightArm 67.478989 76.653557 105.239726
RightForeArm 39.924584 -0.000000 61.397826
RightHand 0.042112 -0.000000 28.701652
RightHandThumb1 -24.326973 -0.000000 -32.862282
LeftUpLeg -5.494423 -4.678887 40.131274
LeftLeg 24.151492 -0.000000 -0.000000
LeftFoot -17.397223 36.431542 -9.962262
LeftToeBase -11.017887 -0.000000 0.000000
RightUpLeg -134.384782 -54.030827 17.298133
RightLeg -9.992628 -0.000000 0.000000
RightFoot 39.622177 -21.223888 11.232724
RightToeBase 11.180781 -0.000000 -0.000000
472
root 1.649888 34.021746 -5.317478 14.840945 -19.905019 -48.341393
Spine 6.553926 25.719044 32.315352
Head 1.292100 -3.211928 21.417641
LeftShoulder -22.158612 25.554390 33.373960
LeftArm 83.224066 -81.310923 -72.584505
LeftForeArm 10.183281 -0.000000 17.394206
LeftHand 9.120404 -0.000000 15.755373
LeftHandThumb1 -26.253704 0.000000 33.147579
RightShoulder -11.813972 33.551675 -34.709006
RightArm 67.721236 76.647799 105.530974
RightForeArm 40.095653 -0.000000 61.106792
RightHand 0.012039 -0.000000 28.970028
RightHandThumb1 -24.326973 -0.000000 -32.862282
LeftUpLeg -6.072325 -4.096575 40.325349
LeftLeg 24.958602 -0.000000 -0.000000
LeftFoot -18.068683 35.549036 -10.777121
LeftToeBase -10.840009 -0.000000 0.000000
RightUpLeg -134.063245 -53.936941 17.218343
RightLeg -10.065675 -0.000000 0.000000
RightFoot 39.642328 -21.327691 11.568119
RightToeBase 11.168530 -0.000000 -0.000000
473
root 1.674781 34.006027 -5.377547 14.914097 -19.885634 -48.361029
Spine 6.760107 25.684303 32.369760
Head 0.894783 -3.113744 21.616953
LeftShoulder -22.104068 25.395492 33.586704
LeftArm 85.614544 -81.459631 -74.348775
LeftForeArm 10.264913 0.000000 17.774135
LeftHand 9.209467 0.000000 15.960766
LeftHandThumb1 -26.253704 0.000000 33.147579
RightShoulder -11.789987 33.346110 -34.688706
RightArm 68.486202 76.675720 106.353240
RightForeArm 40.407899 0.000000 60.808209
RightHand 0.208388 -0.000000 28.744778
RightHandThumb1 -24.326973 -0.000000 -32.862282
LeftUpLeg -6.615328 -3.514744 40.448491
LeftLeg 25.638150 -0.000000 -0.000000
LeftFoot -18.519161 34.876976 -11.285353
LeftToeBase -10.949475 -0.000000 0.000000
RightUpLeg -133.854884 -53.836568 17.146885
RightLeg -10.017025 -0.000000 0.000000
RightFoot 39.707539 -21.443042 11.868277
RightToeBase 11.176536 -0.000000 -0.000000
